<svg id="Ex_Filled" enable-background="new 0 0 64 64" height="512" viewBox="0 0 64 64" width="512" xmlns="http://www.w3.org/2000/svg"><path d="m49 27.889v-5.889c0-.552-.448-1-1-1h-34c-.552 0-1 .448-1 1v5.889c0 .132.822 12.869 2.049 19.989l1.588 4.47c1.41 3.969 5.155 6.627 9.363 6.652h10c4.208-.025 7.953-2.683 9.363-6.652l1.588-4.47c1.227-7.12 2.049-19.857 2.049-19.989z" fill="#dfdad1"/><path d="m43 21v12c0 1.105-.895 2-2 2-1.105 0-2-.895-2-2v-5c0-1.105-.895-2-2-2-1.105 0-2 .895-2 2v1c0 1.105-.895 2-2 2-1.105 0-2-.895-2-2v-8" fill="#c27f61"/><path d="m27.593 44.317c-.073-.135-.163-.256-.251-.379-1.894-2.644-7.043-2.498-11.842.436-4.82 2.946-7.515 7.621-6.261 10.679.053.128.101.259.168.381 1.657 3.039 7.071 3.013 12.093-.057 5.022-3.069 7.75-8.021 6.093-11.06z" fill="#c27f61"/><path d="m22.944 45.325c1.827-1.117 3.16-1.338 4.398-1.387-1.894-2.644-7.043-2.498-11.842.436-4.82 2.946-7.515 7.621-6.261 10.679 1.809-.06 3.432.22 6.11-1.417 4.547-2.78 3.047-5.531 7.595-8.311z" fill="#b35f39"/><path d="m28.022 45.631c.452 3.017-2.172 7.087-6.522 9.746-.067.041-.134.075-.201.115 1.098 1.48 2.785 2.449 4.701 2.449 3.314 0 6-2.844 6-6.353 0-2.753-1.664-5.075-3.978-5.957z" fill="#b35f39"/><path d="m44 54h6.117c1.722 0 3.25-1.102 3.795-2.735l6.088-18.265v-4c0-2.209-1.791-4-4-4h-7v5h6v3l-5 16h-4z" fill="#fcb641"/><path d="m47 21h-32c0-2.319 1.652-4.31 3.931-4.737l1.011-.19c7.308-1.37 14.807-1.37 22.115 0l1.011.19c2.28.427 3.932 2.418 3.932 4.737z" fill="#c27f61"/><path d="m58 59-.621 2.485c-.223.89-1.023 1.515-1.941 1.515h-48.876c-.918 0-1.718-.625-1.94-1.515l-.622-2.485z" fill="#fcb641"/><path d="m33.774 7.874c1.571-1.31 3.353-2.795 3.353-5.757h-1.997c0 2.028-1.222 3.045-2.636 4.224-1.571 1.31-3.353 2.795-3.353 5.757h1.996c.001-2.028 1.223-3.045 2.637-4.224z"/><path d="m44.819 6.815c1.541-1.54 3.287-3.287 3.287-6.694h-1.996c0 2.581-1.253 3.833-2.702 5.283-1.541 1.54-3.287 3.287-3.287 6.694h1.996c0-2.581 1.253-3.833 2.702-5.283z"/><path d="m22.861 6.815c1.541-1.54 3.287-3.287 3.287-6.694h-1.996c0 2.581-1.253 3.833-2.702 5.283-1.541 1.54-3.287 3.287-3.287 6.694h1.996c0-2.581 1.252-3.833 2.702-5.283z"/><path d="m56.091 24.075h-5.989v-1.996c0-1.101-.895-1.996-1.996-1.996h-.086c-.409-2.351-2.24-4.259-4.652-4.711l-1.009-.189c-7.447-1.395-14.995-1.395-22.442 0l-1.009.189c-2.412.452-4.243 2.361-4.652 4.711h-.086c-1.101 0-1.996.895-1.996 1.996v5.878c0 4.769.426 9.567 1.268 14.26l1.965-.352c-.82-4.576-1.237-9.256-1.237-13.908v-5.878h15.97v6.987c0 1.651 1.343 2.994 2.994 2.994s2.994-1.343 2.994-2.994v-.998c0-.55.447-.998.998-.998s.998.448.998.998v4.991c0 1.651 1.343 2.994 2.994 2.994s2.994-1.343 2.994-2.994v-2.994h-1.996v2.994c0 .55-.447.998-.998.998s-.998-.448-.998-.998v-4.991c0-1.651-1.343-2.994-2.994-2.994s-2.994 1.343-2.994 2.994v.998c0 .55-.447.998-.998.998s-.998-.448-.998-.998v-6.987h9.981v5.989h1.996v-5.989h3.992v5.878c0 5.662-.585 11.375-2.016 19.698l-1.557 4.381c-.12.339-.26.668-.417.985h-.002v.004c-1.502 3.021-4.613 4.987-8.045 4.987h-6.505c2.129-1.259 3.57-3.655 3.57-6.4 0-2.866-1.623-5.47-4.091-6.654-.1-.376-.243-.74-.43-1.084-.089-.161-.192-.308-.313-.478-.004-.006-.008-.011-.013-.016-2.246-3.105-7.886-3.029-13.139.182-5.255 3.211-8.114 8.322-6.652 11.889 0 0 .141.346.214.48.491.901 1.255 1.607 2.238 2.082h-6.758c-.307 0-.598.142-.787.384-.189.243-.257.558-.182.856l.62 2.48c.334 1.334 1.53 2.267 2.906 2.267h48.785c1.376 0 2.571-.933 2.905-2.268l.62-2.48c.075-.298.008-.614-.182-.856-.19-.243-.479-.384-.787-.384h-15.714c1.138-.798 2.126-1.813 2.897-2.994h4.95c2.151 0 4.054-1.371 4.734-3.412l6.077-18.231c.034-.103.052-.21.052-.316v-3.992c-.002-2.753-2.24-4.992-4.992-4.992zm-39.792-3.992c.375-1.382 1.514-2.474 2.977-2.749l1.009-.189c7.201-1.35 14.504-1.35 21.705 0l1.01.189c1.464.274 2.602 1.366 2.977 2.749zm12.842 27.279c1.233.991 1.997 2.555 1.997 4.249 0 2.946-2.239 5.343-4.991 5.343-1.162 0-2.269-.44-3.157-1.235 3.466-2.358 5.711-5.517 6.151-8.357zm-1.965-1.55c.097.65.02 1.359-.209 2.095-.385 1.214-1.185 2.516-2.304 3.743-.01.011-.072.078-.093.101-.962 1.029-2.152 2.002-3.508 2.831 0 0-.178.104-.206.125-2.904 1.7-6.042 2.386-8.253 1.796-.42-.112-.787-.266-1.105-.459 1.769-.186 3.426-.781 4.78-1.669 1.198-.786 1.955-1.494 2.383-2.012.628-.759 1.104-1.636 1.429-2.217.333-.594.647-1.155 1.304-1.923.265-.31.817-.956 1.647-1.593.516-.396 1.664-1.149 3.908-1.619.102.22.222.766.227.801zm-5.947 10.977c.457.484.969.894 1.52 1.223h-4.357c.943-.31 1.896-.719 2.837-1.223zm-5.042-11.527c2.334-1.426 4.816-2.16 6.835-2.16.715 0 1.371.092 1.942.278-1.711.632-2.966 1.47-3.434 1.829-.995.764-1.396 1.282-1.682 1.616-.785.918-1.151 1.722-1.5 2.344-.308.549-.574 1.024-1.087 1.644-.356.431-1.1 1.249-2.078 1.891-1.722 1.129-3.648 1.347-5.028 1.317-.426-2.597 2.103-6.356 6.032-8.759zm40.622 14.746-.31 1.24c-.112.445-.51.757-.969.757h-48.784c-.459 0-.856-.311-.969-.757l-.31-1.24zm-6.765-28.946h4.05v1.844l-4.725 15.124h-1.318c1.198-6.959 1.813-12.129 1.993-16.968zm9.041 1.835-6.025 18.077c-.409 1.225-1.551 2.047-2.842 2.047h-3.923c.041-.105.081-.211.119-.316l.951-2.678h2.736c.436 0 .822-.283.952-.701l4.991-15.97c.03-.096.046-.197.046-.297v-2.994c0-.551-.446-.998-.998-.998h-4.991v-2.994h5.989c1.651 0 2.994 1.343 2.994 2.994v3.83z"/></svg>