<svg xmlns="http://www.w3.org/2000/svg" width="479.412" height="472.712" viewBox="0 0 479.412 472.712">
  <g id="out_line" data-name="out line" transform="translate(-16.009 -15.988)">
    <path id="Path_229" data-name="Path 229" d="M171.961,488.7a103.7,103.7,0,0,0,16.848-1.376c1.773-.287,3.609-.639,5.429-1.043A103.26,103.26,0,0,0,223.3,475.046c27.053-15.451,48.362-43.658,60-79.425a203.037,203.037,0,0,0,8.271-37.188c3.857.377,7.749.587,11.679.587,23.832,0,48.867-6.891,73.462-20.345,31.792-17.391,59.943-44.268,81.409-77.725,48.517-75.59,49.844-165.336,3.163-213.389A102.388,102.388,0,0,0,433.637,27.29c-30.955-15.531-69.063-15.041-107.3,1.377-37.676,16.175-72.165,46.5-97.116,85.382a248.087,248.087,0,0,0-19.182,36.1c-21.863-16.077-46.4-25.332-71.548-25.649a103.01,103.01,0,0,0-23.426,2.4,99.873,99.873,0,0,0-10.449,2.9c-32.844,10.973-59.388,38.318-74.741,77-15.13,38.1-17.984,83.936-8.039,129.051C41.514,425.166,105.436,488.7,171.961,488.7ZM455.127,64.712c16.139,19.931,24.679,47.725,24.189,79.247-.556,35.916-12.866,74.4-34.66,108.351-20.024,31.209-46.174,56.22-75.622,72.329-25.084,13.721-51.387,19.966-75,17.955a239.052,239.052,0,0,0,87.91-147.286,223.684,223.684,0,0,1,64.1-121.724ZM419.108,56.3l12.308-12.017c1,.589,2.006,1.194,3,1.827a86.547,86.547,0,0,1,9.568,7.122l-9.118,8.9A239.671,239.671,0,0,0,366.178,192.57a223.059,223.059,0,0,1-72.97,129.923q-.324-9.708-1.457-19.543a239.189,239.189,0,0,0,63.261-124.921A222.3,222.3,0,0,1,419.108,56.3ZM242.684,122.69C286.942,53.718,360.74,18.1,415.848,37.126l-7.917,7.73a238.192,238.192,0,0,0-68.683,130.435,223.076,223.076,0,0,1-50.677,107.374c-.353-1.778-.718-3.557-1.11-5.336-10.605-48.132-34.258-89.2-64.513-116.609a231.16,231.16,0,0,1,19.736-38.03Zm-96.5,30.979.126-12.7c25.508,2.634,51.226,16.2,73.215,38.786,25.055,25.741,43.634,61.617,52.316,101.018,8.334,37.836,7,76.866-3.749,109.9-8.229,25.281-21.66,46.215-38.582,60.535a239.064,239.064,0,0,0-42.32-166.226A222.415,222.415,0,0,1,146.169,155.92c0-.746,0-1.483.01-2.251Zm-31.25,6.887.163-17.2q1.693-.45,3.4-.83a86.952,86.952,0,0,1,11.809-1.755l-.126,12.722c-.011.814-.011,1.616-.011,2.43a238.328,238.328,0,0,0,43.956,138.3,223.134,223.134,0,0,1,39.247,157.239l-1.463,11.561A87.312,87.312,0,0,1,196.9,469.08l1.1-8.719a240.979,240.979,0,0,0,1.9-30.155A238.346,238.346,0,0,0,155.94,291.872a222.252,222.252,0,0,1-41.011-131.316Zm-15.9-11.219L98.929,160.4a238.158,238.158,0,0,0,43.947,140.71A222.434,222.434,0,0,1,183.9,430.2a224.923,224.923,0,0,1-1.776,28.146l-1.764,13.947c-28.477,2.7-58.094-8.694-84.035-32.5C67.87,413.678,46.966,375.542,37.463,332.409,19.82,252.382,46.656,174.965,99.034,149.337Z" fill="#1d150b"/>
    <path id="Path_230" data-name="Path 230" d="M290.149,115.721a7.973,7.973,0,0,0,5.447-2.142c3.356-3.122,6.884-6.14,10.486-8.97a8,8,0,0,0-9.887-12.58c-3.948,3.1-7.816,6.411-11.5,9.834a8,8,0,0,0,5.45,13.858Z" fill="#1d150b"/>
    <path id="Path_231" data-name="Path 231" d="M249.27,164.845a7.994,7.994,0,0,0,10.724-3.6,166.487,166.487,0,0,1,18.325-28.927,8,8,0,1,0-12.561-9.91,182.322,182.322,0,0,0-20.091,31.714,8,8,0,0,0,3.6,10.723Z" fill="#1d150b"/>
    <path id="Path_232" data-name="Path 232" d="M94.5,413.242a8,8,0,0,0,12.162-10.4c-2.979-3.485-5.849-7.136-8.525-10.852a8,8,0,0,0-12.983,9.352C88.093,405.418,91.237,409.421,94.5,413.242Z" fill="#1d150b"/>
    <path id="Path_233" data-name="Path 233" d="M114.237,433.024a182.34,182.34,0,0,0,30.847,21.4,8,8,0,1,0,7.715-14.017,166.345,166.345,0,0,1-28.136-19.517,8,8,0,1,0-10.426,12.136Z" fill="#1d150b"/>
  </g>
</svg>
