<svg xmlns="http://www.w3.org/2000/svg" width="512" height="512" viewBox="0 0 512 512">
  <g id="XMLID_1039_" transform="translate(0 0)">
    <g id="XMLID_142_">
      <path id="XMLID_175_" d="M428,349.916a84,84,0,1,0,0-168H279a10,10,0,0,0,0,20H397.7v50.678A203.248,203.248,0,0,1,330.115,404H136.972c.295-.286.6-.563.889-.854,11.572-11.572,18.854-26.178,20.5-41.129,1.74-15.777-2.906-30.071-13.084-40.249-16.115-16.113-42.287-17.4-64.641-5.158A202.364,202.364,0,0,1,70.3,252.594V201.916H189a10,10,0,0,0,0-20H60.295a10,10,0,0,0-10,10v60.678a222.275,222.275,0,0,0,13.567,76.635C52.314,340.8,45.046,355.384,43.4,370.316c-1.394,12.631,1.316,24.3,7.672,33.684H10A10,10,0,0,0,0,414a58.066,58.066,0,0,0,58,58H89.005A50.088,50.088,0,0,0,138,512H330a50.086,50.086,0,0,0,48.995-40H410a58.065,58.065,0,0,0,58-58,10,10,0,0,0-10-10H358.574A223.172,223.172,0,0,0,395.4,349.917H428Zm-289.516,9.908c-1.152,10.448-6.4,20.811-14.767,29.18h0c-8.369,8.369-18.731,13.613-29.18,14.766a34.438,34.438,0,0,1-10.654-.413,26.231,26.231,0,0,1,19.511-27.512,46.211,46.211,0,0,0,32.881-32.388A31.754,31.754,0,0,1,138.484,359.824ZM63.277,372.51c1.153-10.448,6.4-20.811,14.767-29.18,9.861-9.861,22.214-15.056,33.27-15.056a32.446,32.446,0,0,1,6.561.658,26.231,26.231,0,0,1-19.509,27.557,46.211,46.211,0,0,0-32.88,32.389A31.777,31.777,0,0,1,63.277,372.51ZM410,452H370a10,10,0,0,0-10,10,30.034,30.034,0,0,1-30,30H138a30.034,30.034,0,0,1-30-30,10,10,0,0,0-10-10H58a38.068,38.068,0,0,1-36.665-28H446.664A38.067,38.067,0,0,1,410,452Zm18-250.084a64,64,0,1,1,0,128H403.9a223.238,223.238,0,0,0,7.353-24H428a40,40,0,0,0,0-80H417.7v-24Zm-10.3,44H428a20,20,0,1,1,0,40H415.192a223.8,223.8,0,0,0,2.512-33.322Z" fill="#c49b63"/>
      <path id="XMLID_180_" d="M307.6,139.929a10,10,0,1,0,14.142,14.143,45.341,45.341,0,0,0,0-64.049,25.286,25.286,0,0,1,0-35.764A10,10,0,0,0,307.6,40.117a45.286,45.286,0,0,0,0,64.048,25.317,25.317,0,0,1,0,35.764Z" fill="#c49b63"/>
      <path id="XMLID_319_" d="M146.26,139.929A10,10,0,1,0,160.4,154.072a45.341,45.341,0,0,0,0-64.049,25.318,25.318,0,0,1,0-35.764,10,10,0,0,0-14.143-14.143,45.341,45.341,0,0,0,0,64.049,25.317,25.317,0,0,1,0,35.764Z" fill="#c49b63"/>
      <path id="XMLID_320_" d="M226.929,139.929a10,10,0,1,0,14.142,14.142,58.5,58.5,0,0,0,0-82.642,38.437,38.437,0,0,1,0-54.358A10,10,0,0,0,226.928,2.929a58.438,58.438,0,0,0,0,82.642A38.481,38.481,0,0,1,226.929,139.929Z" fill="#c49b63"/>
      <path id="XMLID_321_" d="M234,181.92a9.988,9.988,0,1,0,7.069,2.92A10.066,10.066,0,0,0,234,181.92Z" fill="#c49b63"/>
    </g>
  </g>
</svg>
