<svg xmlns="http://www.w3.org/2000/svg" width="511.998" height="374.263" viewBox="0 0 511.998 374.263">
  <g id="delivery-truck" transform="translate(0 -68.867)">
    <g id="Group_69" data-name="Group 69">
      <g id="Group_68" data-name="Group 68">
        <path id="Path_234" data-name="Path 234" d="M414.5,188.525H382.264l9.712-111.509c.018-.2.021-.4.022-.6,0-.017,0-.033,0-.05v-.008a7.5,7.5,0,0,0-4.522-6.873l-.068-.032c-.167-.07-.34-.13-.514-.188-.065-.021-.127-.047-.192-.067-.142-.043-.288-.077-.433-.112-.1-.024-.2-.053-.3-.073-.127-.025-.259-.041-.389-.06s-.242-.039-.365-.05l-.061-.008c-.132-.012-.262-.01-.393-.015-.088,0-.174-.013-.262-.013H231.01a7.5,7.5,0,0,0,0,15H376.323L361.4,255.242c0,.013,0,.026,0,.039l-3.766,43.241H97.018l4.359-45H151a7.5,7.5,0,0,0,0-15H102.831l9.2-95H191.01a7.5,7.5,0,0,0,0-15H113.489l4.328-44.662H201.01a7.5,7.5,0,0,0,0-15H111a7.5,7.5,0,0,0-7.318,5.917c0,.025-.014.049-.019.074-.038.187-.063.378-.088.57-.007.061-.02.119-.026.18,0,.012,0,.023,0,.035l-5.124,52.885H7.5a7.5,7.5,0,0,0,0,15H96.965l-9.2,94.995H61a7.5,7.5,0,0,0,0,15H86.308L81.3,305.245c0,.008,0,.016,0,.023l-7.749,79.979c0,.009,0,.019,0,.027l0,.029c-.01.1-.009.206-.015.31-.007.138-.021.273-.021.413,0,.006,0,.012,0,.019,0,.193.014.383.028.573.006.061,0,.123.011.183.02.194.053.385.088.575.01.056.015.113.026.168.029.144.07.283.108.424.026.1.047.2.077.3.009.027.021.053.029.081a7.5,7.5,0,0,0,1.783,2.936c.015.015.027.032.042.046.08.08.167.152.251.228a7.443,7.443,0,0,0,1.74,1.191c.133.066.264.135.4.192.041.018.085.03.127.046.188.075.377.147.572.208.018.005.035.008.053.014.222.066.446.124.675.171.03.006.061.008.09.014.218.041.437.076.66.1l.014,0q.369.036.732.036h33.4a57.089,57.089,0,0,0,113.192,0H347.9a57.09,57.09,0,0,0,113.194,0h33.412c.25,0,.5-.015.74-.039.044,0,.086-.013.13-.018.2-.023.389-.05.579-.088.082-.016.161-.038.242-.057.147-.034.3-.07.439-.113.1-.029.193-.063.289-.1.123-.042.246-.086.367-.135.1-.041.2-.086.3-.131s.22-.1.327-.158.2-.106.3-.162.2-.122.306-.186.188-.121.278-.185.2-.146.3-.222c.082-.065.165-.129.245-.2.1-.087.2-.178.3-.271.068-.065.139-.129.2-.2.1-.106.2-.218.3-.331.053-.061.108-.12.159-.182.11-.136.21-.276.31-.417.034-.049.072-.1.105-.145.122-.183.237-.371.343-.565a.188.188,0,0,0,.021-.036c.113-.208.217-.421.31-.641.026-.063.046-.128.071-.191.061-.155.121-.31.172-.471.033-.1.057-.211.086-.316.033-.125.068-.249.1-.376s.041-.229.06-.344.039-.2.052-.3c.318-2.548,6.191-49.667,8.814-80.135,0-.029,0-.059.007-.088.755-8.783,1.239-16.179,1.239-20.707A97.611,97.611,0,0,0,414.5,188.525Zm-33.541,15H411.64l-3.919,45H377.038Zm-209.949,224.6a42.1,42.1,0,1,1,42.1-42.1A42.152,42.152,0,0,1,171.008,428.129Zm233.488,0a42.1,42.1,0,1,1,42.105-42.1A42.151,42.151,0,0,1,404.5,428.129Zm83.367-49.607H461.1a57.09,57.09,0,0,0-113.194,0H227.6a57.09,57.09,0,0,0-113.194,0H89.266l6.3-65H364.5v0h.011a7.38,7.38,0,0,0,.746-.039c.046,0,.091-.014.137-.02.2-.023.391-.051.583-.089.083-.017.164-.04.246-.06.15-.036.3-.071.446-.115.1-.03.2-.066.292-.1.126-.044.252-.087.374-.137.105-.043.206-.091.308-.139s.222-.1.329-.158.2-.112.3-.17.2-.121.3-.185.189-.129.282-.2.2-.142.291-.217.171-.14.255-.213.188-.166.278-.253.152-.148.226-.225c.09-.094.177-.191.263-.29.067-.078.133-.156.2-.236.083-.105.162-.213.24-.322.059-.082.116-.164.172-.248.073-.113.143-.229.21-.347.051-.088.1-.176.149-.266.063-.118.117-.238.174-.359.044-.1.089-.192.129-.292.049-.118.09-.239.133-.36s.076-.214.109-.324.06-.235.09-.353.061-.237.084-.358.037-.238.055-.358.039-.246.051-.372c0-.018.006-.035.007-.053l3.759-43.15H414.5c22.979,0,33.343,11.906,44.314,24.512,9.053,10.4,19.16,22.006,36.34,24.837C492.968,335.938,489.441,365.554,487.863,378.522Zm8.569-80.684c-11.145-2.272-18-10.107-26.309-19.651-10.389-11.935-23.072-26.5-47.385-29.214l3.88-44.548a82.623,82.623,0,0,1,70.38,81.6C497,288.838,496.788,292.922,496.432,297.838Z" fill="#1d150b"/>
      </g>
    </g>
    <g id="Group_71" data-name="Group 71">
      <g id="Group_70" data-name="Group 70">
        <path id="Path_235" data-name="Path 235" d="M171.008,358.524a27.5,27.5,0,1,0,27.5,27.5A27.531,27.531,0,0,0,171.008,358.524Zm0,40a12.5,12.5,0,1,1,12.5-12.5A12.514,12.514,0,0,1,171.008,398.524Z" fill="#1d150b"/>
      </g>
    </g>
    <g id="Group_73" data-name="Group 73">
      <g id="Group_72" data-name="Group 72">
        <path id="Path_236" data-name="Path 236" d="M404.5,358.524a27.5,27.5,0,1,0,27.5,27.5A27.531,27.531,0,0,0,404.5,358.524Zm0,40a12.5,12.5,0,1,1,12.5-12.5A12.514,12.514,0,0,1,404.5,398.524Z" fill="#1d150b"/>
      </g>
    </g>
    <g id="Group_75" data-name="Group 75">
      <g id="Group_74" data-name="Group 74">
        <path id="Path_237" data-name="Path 237" d="M71,188.527H34.334a7.5,7.5,0,0,0,0,15H71a7.5,7.5,0,0,0,0-15Z" fill="#1d150b"/>
      </g>
    </g>
  </g>
</svg>
